<?xml version="1.0" encoding="UTF-8" standalone="no"?>
<!-- Generator: Adobe Illustrator 18.1.1, SVG Export Plug-In . SVG Version: 6.00 Build 0)  -->

<svg
   xmlns:dc="http://purl.org/dc/elements/1.1/"
   xmlns:cc="http://creativecommons.org/ns#"
   xmlns:rdf="http://www.w3.org/1999/02/22-rdf-syntax-ns#"
   xmlns:svg="http://www.w3.org/2000/svg"
   xmlns="http://www.w3.org/2000/svg"
   xmlns:sodipodi="http://sodipodi.sourceforge.net/DTD/sodipodi-0.dtd"
   xmlns:inkscape="http://www.inkscape.org/namespaces/inkscape"
   version="1.1"
   id="Capa_1"
   x="0px"
   y="0px"
   viewBox="0 0 17.804 17.804"
   style="enable-background:new 0 0 17.804 17.804;"
   xml:space="preserve"
   sodipodi:docname="next.svg"
   inkscape:version="0.92.3 (2405546, 2018-03-11)"><metadata
   id="metadata45"><rdf:RDF><cc:Work
       rdf:about=""><dc:format>image/svg+xml</dc:format><dc:type
         rdf:resource="http://purl.org/dc/dcmitype/StillImage" /></cc:Work></rdf:RDF></metadata><defs
   id="defs43" /><sodipodi:namedview
   pagecolor="#ffffff"
   bordercolor="#666666"
   borderopacity="1"
   objecttolerance="10"
   gridtolerance="10"
   guidetolerance="10"
   inkscape:pageopacity="0"
   inkscape:pageshadow="2"
   inkscape:window-width="1920"
   inkscape:window-height="1020"
   id="namedview41"
   showgrid="false"
   inkscape:zoom="13.255448"
   inkscape:cx="8.9020004"
   inkscape:cy="8.9020004"
   inkscape:window-x="0"
   inkscape:window-y="0"
   inkscape:window-maximized="1"
   inkscape:current-layer="Capa_1" />
<g
   id="g8"
   style="fill:#ffffff">
	<g
   id="c93_stop"
   style="fill:#ffffff">
		<path
   d="M2.44,0.043c0.14-0.071,0.304-0.051,0.425,0.044l10.777,8.502c0.094,0.074,0.152,0.191,0.152,0.312    c0,0.118-0.059,0.24-0.152,0.314L2.864,17.718c-0.072,0.056-0.162,0.086-0.25,0.086l-0.175-0.04    c-0.137-0.065-0.223-0.206-0.223-0.362V0.403C2.216,0.249,2.302,0.106,2.44,0.043z"
   id="path2"
   style="fill:#ffffff" />
		<path
   d="M12.616,0.034h2.656c0.175,0,0.316,0.181,0.316,0.399v16.935c0,0.222-0.142,0.403-0.316,0.403h-2.656    c-0.174,0-0.316-0.182-0.316-0.403V0.434C12.3,0.215,12.443,0.034,12.616,0.034z"
   id="path4"
   style="fill:#ffffff" />
	</g>
	<g
   id="Capa_1_11_"
   style="fill:#ffffff">
	</g>
</g>
<g
   id="g10">
</g>
<g
   id="g12">
</g>
<g
   id="g14">
</g>
<g
   id="g16">
</g>
<g
   id="g18">
</g>
<g
   id="g20">
</g>
<g
   id="g22">
</g>
<g
   id="g24">
</g>
<g
   id="g26">
</g>
<g
   id="g28">
</g>
<g
   id="g30">
</g>
<g
   id="g32">
</g>
<g
   id="g34">
</g>
<g
   id="g36">
</g>
<g
   id="g38">
</g>
</svg>