<?xml version="1.0" encoding="UTF-8" standalone="no"?>
<svg
   xmlns:dc="http://purl.org/dc/elements/1.1/"
   xmlns:cc="http://creativecommons.org/ns#"
   xmlns:rdf="http://www.w3.org/1999/02/22-rdf-syntax-ns#"
   xmlns:svg="http://www.w3.org/2000/svg"
   xmlns="http://www.w3.org/2000/svg"
   xmlns:sodipodi="http://sodipodi.sourceforge.net/DTD/sodipodi-0.dtd"
   xmlns:inkscape="http://www.inkscape.org/namespaces/inkscape"
   viewBox="0 0 50 50"
   id="svg2"
   version="1.1"
   inkscape:version="0.91 r13725"
   sodipodi:docname="facebook-square.svg"
   width="50"
   height="50">
  <metadata
     id="metadata10">
    <rdf:RDF>
      <cc:Work
         rdf:about="">
        <dc:format>image/svg+xml</dc:format>
        <dc:type
           rdf:resource="http://purl.org/dc/dcmitype/StillImage" />
        <dc:title></dc:title>
      </cc:Work>
    </rdf:RDF>
  </metadata>
  <defs
     id="defs8" />
  <sodipodi:namedview
     pagecolor="#ffffff"
     bordercolor="#666666"
     borderopacity="1"
     objecttolerance="10"
     gridtolerance="10"
     guidetolerance="10"
     inkscape:pageopacity="0"
     inkscape:pageshadow="2"
     inkscape:window-width="1920"
     inkscape:window-height="1018"
     id="namedview6"
     showgrid="false"
     fit-margin-top="0"
     fit-margin-left="0"
     fit-margin-right="0"
     fit-margin-bottom="0"
     inkscape:zoom="1.3037281"
     inkscape:cx="150.1921"
     inkscape:cy="45.846904"
     inkscape:window-x="0"
     inkscape:window-y="0"
     inkscape:window-maximized="1"
     inkscape:current-layer="svg2" />
  <path
     d="m 50,5.35714 0,39.28572 C 50,47.60045 47.600446,50 44.642857,50 l -9.520089,0 0,-19.77679 6.763393,0 0.970982,-7.54464 -7.734375,0 0,-4.82143 c 0,-2.1875 0.602678,-3.67187 3.738839,-3.67187 l 3.995536,0 0,-6.74107 C 42.165179,7.3549 39.799107,7.14286 37.03125,7.14286 c -5.758929,0 -9.709821,3.51562 -9.709821,9.97768 l 0,5.56919 -6.785715,0 0,7.54464 6.796875,0 0,19.76563 -21.9754461,0 C 2.3995536,50 0,47.60045 0,44.64286 L 0,5.35714 C 0,2.39955 2.3995536,0 5.3571429,0 L 44.642857,0 C 47.600446,0 50,2.39955 50,5.35714 Z"
     id="path4"
     style="fill:#f79a51;fill-opacity:1"
     inkscape:connector-curvature="0" />
</svg>
