<?xml version="1.0" encoding="UTF-8" standalone="no"?>
<!-- Created with Inkscape (http://www.inkscape.org/) -->

<svg
   xmlns:dc="http://purl.org/dc/elements/1.1/"
   xmlns:cc="http://creativecommons.org/ns#"
   xmlns:rdf="http://www.w3.org/1999/02/22-rdf-syntax-ns#"
   xmlns:svg="http://www.w3.org/2000/svg"
   xmlns="http://www.w3.org/2000/svg"
   xmlns:sodipodi="http://sodipodi.sourceforge.net/DTD/sodipodi-0.dtd"
   xmlns:inkscape="http://www.inkscape.org/namespaces/inkscape"
   width="84.666664mm"
   height="82.211388mm"
   viewBox="0 0 299.99999 291.30019"
   id="svg4155"
   version="1.1"
   inkscape:version="0.91 r13725"
   sodipodi:docname="logo.svg">
  <defs
     id="defs4157" />
  <sodipodi:namedview
     id="base"
     pagecolor="#ffffff"
     bordercolor="#666666"
     borderopacity="1.0"
     inkscape:pageopacity="0.0"
     inkscape:pageshadow="2"
     inkscape:zoom="0.7"
     inkscape:cx="41.994811"
     inkscape:cy="96.061909"
     inkscape:document-units="px"
     inkscape:current-layer="layer1"
     showgrid="false"
     fit-margin-top="0"
     fit-margin-left="0"
     fit-margin-right="0"
     fit-margin-bottom="0"
     inkscape:window-width="1920"
     inkscape:window-height="1020"
     inkscape:window-x="0"
     inkscape:window-y="0"
     inkscape:window-maximized="1" />
  <metadata
     id="metadata4160">
    <rdf:RDF>
      <cc:Work
         rdf:about="">
        <dc:format>image/svg+xml</dc:format>
        <dc:type
           rdf:resource="http://purl.org/dc/dcmitype/StillImage" />
        <dc:title></dc:title>
      </cc:Work>
    </rdf:RDF>
  </metadata>
  <g
     inkscape:label="Calque 1"
     inkscape:groupmode="layer"
     id="layer1"
     transform="translate(-70.808315,-367.49874)">
    <path
       style="fill:#f79a51;fill-opacity:1"
       d="m 351.9679,367.50124 c -9.83327,0.15825 -19.46685,7.82268 -20.42813,19.28858 -0.70657,8.42802 3.02965,15.10807 10.39162,18.58035 3.36478,1.58696 4.51055,1.80324 8.6913,1.64418 8.07056,-0.30714 14.65595,-4.56068 18.34261,-11.8472 1.54787,-3.05933 1.80961,-4.35338 1.84176,-9.09356 0.0452,-6.68468 -1.11367,-9.30323 -6.10213,-13.7883 -3.75687,-3.37772 -8.26732,-4.85595 -12.73703,-4.78405 z m -52.26308,0.65707 c -6.901,0.13873 -14.07509,3.82765 -17.71763,9.72156 -3.95369,6.39725 -4.20875,15.14932 -0.59991,20.59767 2.54337,3.83971 7.75792,7.93717 10.71263,8.41739 1.29015,0.20971 2.77972,0.47278 3.30942,0.58486 3.32112,0.70277 9.62859,-0.67454 13.20046,-2.88204 3.51927,-2.17505 7.91678,-7.65232 8.96614,-11.16707 0.51988,-1.74136 0.94597,-5.07897 0.94597,-7.41729 0,-7.67034 -4.49381,-13.86981 -12.14817,-16.76062 -2.09868,-0.79261 -4.36859,-1.14068 -6.66891,-1.09446 z m -126.57545,52.59312 c -1.1129,0.009 -2.26349,0.0395 -3.45789,0.0883 -14.76252,0.60422 -25.05306,5.30254 -33.99973,15.52369 -3.38836,3.8711 -8.06583,12.44073 -9.24704,16.94018 -2.30642,8.78565 -2.61326,11.22422 -2.67843,21.2989 -0.0727,11.24382 0.40724,14.47717 3.24018,21.82854 3.95815,10.27134 12.14539,19.43181 20.96782,23.46066 15.01445,6.85647 33.04764,3.87612 41.53844,-6.86556 4.35106,-5.50446 5.26422,-15.83178 2.00632,-22.69425 -2.11573,-4.45656 -6.52093,-8.81559 -10.83903,-10.72569 -6.24224,-2.76123 -15.28398,-2.63932 -21.012,0.28289 -5.9673,3.13139 -7.62869,11.5995 -12.36081,6.75121 -3.30592,-3.45994 -4.20289,-6.39848 -4.16308,-13.64284 0.0344,-6.2263 0.25614,-7.65219 2.33935,-15.03724 1.30683,-4.63268 5.56134,-11.68084 8.54282,-14.15239 1.32321,-1.09687 3.99554,-2.77721 5.93767,-3.73376 3.03036,-1.49256 4.25939,-1.72466 8.66721,-1.63915 8.81103,0.17099 14.68542,3.10382 22.52372,11.2453 5.11692,5.31487 7.17142,8.11786 10.50399,14.32901 5.77928,10.77126 10.42387,26.8973 12.76605,44.32017 1.34361,9.99437 1.7602,32.99702 0.80154,44.29409 -0.59471,7.00787 -2.8733,22.00548 -4.58137,30.1587 -1.59748,7.62508 -5.85272,20.54925 -8.42248,25.57931 -0.74987,1.46788 -1.53688,3.2472 -1.74849,3.95342 -1.18017,3.93938 -7.28544,13.24485 -11.89732,18.13394 -8.56614,9.081 -13.86159,11.76822 -23.20688,11.77798 -8.56362,0.009 -15.13098,-3.28626 -22.05925,-11.06775 -11.78346,-13.23448 -19.2008,-32.31432 -23.17277,-59.61219 -1.64962,-11.337 -2.33653,-33.84259 -1.32317,-43.33607 0.7413,-6.94502 3.40433,-19.35981 4.65359,-21.69413 0.46266,-0.86441 0.20262,-2.71591 -0.94895,-6.76223 -4.09945,-16.53806 -4.87558,-32.35014 -1.277,-46.09776 1.12564,-4.28096 2.89786,-8.63629 3.36756,-9.95119 1.11171,-2.77814 2.49651,-5.66823 3.89524,-7.77744 2.77766,-4.15954 3.05332,-4.9826 1.66923,-4.9826 -2.42224,0 -19.03638,13.38305 -24.82192,19.99473 -5.00624,5.72103 -12.260812,15.56367 -15.346186,20.82237 -3.058307,5.21245 -9.010306,17.45393 -9.010306,18.53018 -1.077611,2.66979 -2.173147,5.42527 -2.886093,7.74332 -0.971139,3.17798 -2.021066,6.35596 -2.333291,7.06217 -0.312277,0.70622 -0.840168,2.58412 -1.173708,4.17311 -0.33354,1.58899 -1.029331,4.91142 -1.54582,7.38318 -3.304431,15.81303 -2.884809,42.151 0.928868,58.33517 4.683481,19.87516 13.207498,37.46256 25.500098,52.61221 9.151758,11.2788 23.931898,21.56359 38.902168,27.07 4.3336,1.59399 6.9388,2.23856 12.90852,3.19603 10.20595,1.6369 23.78952,1.07119 32.42181,-1.35023 15.62055,-4.3817 27.16764,-11.24803 39.18099,-23.29716 10.098,-10.12802 13.84845,-15.21507 20.38001,-27.64681 1.20591,-2.29521 2.59277,-4.89537 3.08168,-5.77814 0.48896,-0.88278 1.8773,-4.06076 3.08471,-7.06218 12.70354,-31.57971 14.02116,-72.46664 3.28932,-102.08054 -10.06578,-27.77592 -24.19028,-47.26073 -43.10336,-59.46165 -5.99325,-3.86632 -7.96099,-4.77999 -15.79863,-7.33403 -6.90798,-2.25112 -12.89394,-3.17243 -20.6839,-3.10571 z m 183.05781,1.8769 c -1.47037,0.0221 -3.80973,0.2226 -7.13142,0.55074 -17.24326,1.70351 -28.23133,2.13884 -43.96401,1.74249 -8.97559,-0.22614 -17.8595,-0.5923 -19.74199,-0.81357 -1.88255,-0.22126 -3.41984,-0.14591 -3.41676,0.16755 0.005,0.31346 2.38142,1.71326 5.28462,3.10977 9.3593,4.50202 11.98186,8.47106 13.383,20.25252 1.2319,10.35824 0.97771,83.36186 -0.37314,107.21665 -0.09,1.58899 -0.36472,7.22268 -0.61095,12.51931 -0.24622,5.29663 -0.54659,10.93032 -0.66708,12.51931 -0.12049,1.58899 -0.40262,5.63369 -0.62696,8.98823 -0.22435,3.35453 -0.67258,8.55486 -0.99616,11.55628 -0.32352,3.00143 -0.74294,8.59037 -0.93189,12.42 -0.18896,3.82964 -0.46503,7.15887 -0.61295,7.39823 -0.14792,0.23937 -0.60771,4.61773 -1.02219,9.72955 -0.41454,5.11183 -1.02127,10.35621 -1.34824,11.6546 -0.95793,3.80369 -5.56437,6.91191 -14.645,9.88203 -1.78557,0.58403 -3.0752,1.33872 -2.866,1.67726 0.20924,0.33854 1.43364,0.45116 2.72158,0.24979 3.62549,-0.56688 18.01296,-1.57178 28.66498,-2.00229 8.47317,-0.34245 28.07967,0.33168 40.03273,1.37632 4.5016,0.39343 4.87305,-0.35112 0.98608,-1.9752 -3.27516,-1.36844 -7.80768,-5.30707 -9.55602,-8.30408 -2.41496,-4.13973 -4.22996,-18.85493 -5.55041,-44.99528 -0.81377,-16.10937 -0.34355,-65.92025 0.7393,-78.32594 1.32989,-15.63841 1.99471,-31.45025 3.85009,-46.86717 0.34556,-2.82487 1.22794,-10.1737 1.96015,-16.3303 2.45147,-20.61134 4.41358,-24.66359 14.72625,-30.41441 3.97593,-2.21716 4.94722,-3.03118 1.71239,-2.98239 z"
       id="path5338"
       inkscape:connector-curvature="0"
       sodipodi:nodetypes="sssssssssssscsssssssssssssssccssssssssssssssssssccccssscccsssssssssssssssscsscsssssssscssscssssssccsssc" />
  </g>
</svg>
